<svg id="Layer_1" height="512" viewBox="0 0 512 512" width="512" xmlns="http://www.w3.org/2000/svg" data-name="Layer 1"><path d="m286.54 18.45a7.926 7.926 0 0 1 1.03 3.89 8.007 8.007 0 0 1 -5.65 7.64c-8.47 2.65-19.43 9.16-21.07 25.09-1.61-.03-3.23-.05-4.85-.05-4.65 0-9.28.13-13.86.4v-.01s10.23-37.88 36.69-40.97a7.871 7.871 0 0 1 7.71 4.01z" fill="#a4ce52"/><path d="m416.75 434.59a24.391 24.391 0 0 1 -2.14-6.09c-2.17-11.43 7.05-21.92 8.78-33.42 2.24-14.83-8.13-28.84-8.83-43.81-1.04-22.1 18.82-41.01 19.17-63.14.27-17.1-11.27-33.11-9.76-50.16 1.38-15.64 13.46-28.75 16.1-44.24 3.79-22.27-12.49-43.88-13.6-65.98 36.99 39.27 59.53 91.39 59.53 148.57 0 62.03-26.52 118.09-69.24 158.28z" fill="#87ad46"/><path d="m426.47 127.75c1.11 22.1 17.39 43.71 13.6 65.98-2.64 15.49-14.72 28.6-16.1 44.24-1.51 17.05 10.03 33.06 9.76 50.16-.35 22.13-20.21 41.04-19.17 63.14.7 14.97 11.07 28.98 8.83 43.81-1.73 11.5-10.95 21.99-8.78 33.42a24.391 24.391 0 0 0 2.14 6.09l.01.01a228.652 228.652 0 0 1 -23.82 19.53 55.774 55.774 0 0 0 -4.57-11.96c-2.33-4.47-5.29-8.76-6.23-13.67-2.17-11.43 7.05-21.92 8.78-33.42 2.24-14.83-8.13-28.84-8.83-43.81-1.04-22.1 18.82-41.01 19.17-63.14.27-17.1-11.26-33.11-9.76-50.16 1.38-15.64 13.46-28.75 16.1-44.24 4.32-25.38-17.42-49.89-13.09-75.27a62.134 62.134 0 0 1 5.06-15.04 229.361 229.361 0 0 1 26.9 24.33z" fill="#465f18"/><path d="m394.51 118.46c-4.33 25.38 17.41 49.89 13.09 75.27-2.64 15.49-14.72 28.6-16.1 44.24-1.5 17.05 10.03 33.06 9.76 50.16-.35 22.13-20.21 41.04-19.17 63.14.7 14.97 11.07 28.98 8.83 43.81-1.73 11.5-10.95 21.99-8.78 33.42.94 4.91 3.9 9.2 6.23 13.67a55.774 55.774 0 0 1 4.57 11.96 233.31 233.31 0 0 1 -96.84 40.12 66.16 66.16 0 0 0 -5.39-39.35c-2.32-4.81-5.27-9.42-6.19-14.71-2.14-12.31 7.1-23.62 8.86-36.01 2.28-15.98-8.05-31.04-8.72-47.16-.98-23.8 18.93-44.21 19.34-68.04.31-18.42-11.18-35.63-9.63-54 1.42-16.85 13.54-30.99 16.21-47.68 4.39-27.34-17.29-53.69-12.89-81.03 1.84-11.48 8.13-21.64 11.82-32.65a48.645 48.645 0 0 0 2.44-11.99v-.01a232.714 232.714 0 0 1 87.62 41.8 62.134 62.134 0 0 0 -5.06 15.04z" fill="#87ad46"/><path d="m311.95 61.62v.01a48.645 48.645 0 0 1 -2.44 11.99c-3.69 11.01-9.98 21.17-11.82 32.65-4.4 27.34 17.28 53.69 12.89 81.03-2.67 16.69-14.79 30.83-16.21 47.68-1.55 18.37 9.94 35.58 9.63 54-.41 23.83-20.32 44.24-19.34 68.04.67 16.12 11 31.18 8.72 47.16-1.76 12.39-11 23.7-8.86 36.01.92 5.29 3.87 9.9 6.19 14.71a66.16 66.16 0 0 1 5.39 39.35 239.515 239.515 0 0 1 -40.1 3.36c-.86 0-1.72 0-2.58-.02a66.32 66.32 0 0 0 -4.76-42.59c-2.32-4.81-5.28-9.42-6.2-14.71-2.14-12.31 7.11-23.62 8.87-36.01 2.27-15.97-8.06-31.04-8.72-47.16-.98-23.8 18.93-44.21 19.34-68.04.31-18.42-11.19-35.63-9.64-54 1.42-16.85 13.54-30.99 16.22-47.68 4.39-27.34-17.29-53.69-12.9-81.03 1.85-11.48 8.14-21.64 11.82-32.65a44.559 44.559 0 0 0 2.36-18.3 237.053 237.053 0 0 1 42.14 6.2z" fill="#465f18"/><path d="m260.85 55.07c3 .06 5.99.17 8.96.35a44.559 44.559 0 0 1 -2.36 18.3c-3.68 11.01-9.97 21.17-11.82 32.65-4.39 27.34 17.29 53.69 12.9 81.03-2.68 16.69-14.8 30.83-16.22 47.68-1.55 18.37 9.95 35.58 9.64 54-.41 23.83-20.32 44.24-19.34 68.04.66 16.12 10.99 31.19 8.72 47.16-1.76 12.39-11.01 23.7-8.87 36.01.92 5.29 3.88 9.9 6.2 14.71a66.32 66.32 0 0 1 4.76 42.59 237.24 237.24 0 0 1 -74.51-12.72 57.839 57.839 0 0 0 -4.04-42.7c-2.33-4.47-5.3-8.76-6.23-13.67-2.17-11.43 7.05-21.92 8.78-33.42 2.23-14.83-8.13-28.84-8.83-43.81-1.04-22.1 18.82-41.01 19.17-63.14.27-17.1-11.27-33.11-9.76-50.16 1.38-15.64 13.46-28.75 16.1-44.24 4.32-25.38-17.42-49.89-13.09-75.27 1.82-10.66 8.08-20.08 11.74-30.29 2.85-7.94 3.73-17.4.15-24.71v-.01a237.723 237.723 0 0 1 49.24-8.03c4.58-.27 9.21-.4 13.86-.4 1.62 0 3.24.02 4.85.05z" fill="#87ad46"/><path d="m181.01 118.46c-4.33 25.38 17.41 49.89 13.09 75.27-2.64 15.49-14.72 28.6-16.1 44.24-1.51 17.05 10.03 33.06 9.76 50.16-.35 22.13-20.21 41.04-19.17 63.14.7 14.97 11.06 28.98 8.83 43.81-1.73 11.5-10.95 21.99-8.78 33.42.93 4.91 3.9 9.2 6.23 13.67a57.839 57.839 0 0 1 4.04 42.7 232.282 232.282 0 0 1 -30.24-12.78 57.4 57.4 0 0 0 -6.27-29.92c-2.33-4.47-5.29-8.76-6.23-13.67-2.17-11.43 7.05-21.92 8.78-33.42 2.24-14.83-8.13-28.84-8.83-43.81-1.04-22.1 18.82-41.01 19.17-63.14.27-17.1-11.26-33.11-9.76-50.16 1.38-15.64 13.46-28.75 16.1-44.24 4.32-25.38-17.42-49.89-13.09-75.27 1.82-10.66 8.08-20.08 11.74-30.29a40.441 40.441 0 0 0 2.5-14.21v-.01a233.445 233.445 0 0 1 30.12-10.49c3.58 7.31 2.7 16.77-.15 24.71-3.66 10.21-9.92 19.63-11.74 30.29z" fill="#465f18"/><path d="m91.98 121.18c-2.44 24.41 17.62 48.08 13.45 72.55-2.63 15.49-14.72 28.6-16.1 44.24-1.5 17.05 10.03 33.06 9.76 50.16-.35 22.13-20.21 41.04-19.17 63.14.71 14.97 11.07 28.98 8.83 43.81-1.25 8.33-6.44 16.13-8.37 24.14a221.463 221.463 0 0 1 -24.11-33.09c-1.56-11.61-8.26-22.93-8.82-34.86-1.03-22.1 18.83-41.01 19.18-63.14.27-17.1-11.27-33.11-9.77-50.16 1.38-15.64 13.47-28.75 16.11-44.24 2.35-13.85-3.05-27.45-7.74-41.06a223.519 223.519 0 0 1 26.75-31.49z" fill="#465f18"/><path d="m65.23 152.67c4.69 13.61 10.09 27.21 7.74 41.06-2.64 15.49-14.73 28.6-16.11 44.24-1.5 17.05 10.04 33.06 9.77 50.16-.35 22.13-20.21 41.04-19.18 63.14.56 11.93 7.26 23.25 8.82 34.86a214.4 214.4 0 0 1 8.96-233.46z" fill="#87ad46"/><path d="m162.78 73.96a40.441 40.441 0 0 1 -2.5 14.21c-3.66 10.21-9.92 19.63-11.74 30.29-4.33 25.38 17.41 49.89 13.09 75.27-2.64 15.49-14.72 28.6-16.1 44.24-1.5 17.05 10.03 33.06 9.76 50.16-.35 22.13-20.21 41.04-19.17 63.14.7 14.97 11.07 28.98 8.83 43.81-1.73 11.5-10.95 21.99-8.78 33.42.94 4.91 3.9 9.2 6.23 13.67a57.4 57.4 0 0 1 6.27 29.92 229.49 229.49 0 0 1 -68.29-52.87c1.93-8.01 7.12-15.81 8.37-24.14 2.24-14.83-8.12-28.84-8.83-43.81-1.04-22.1 18.82-41.01 19.17-63.14.27-17.1-11.26-33.11-9.76-50.16 1.38-15.64 13.47-28.75 16.1-44.24 4.17-24.47-15.89-48.14-13.45-72.55a230.6 230.6 0 0 1 70.8-47.22z" fill="#87ad46"/><g opacity=".5"><path d="m470.64 342.675a228.652 228.652 0 0 1 -23.82 19.53 233.309 233.309 0 0 1 -96.841 40.12 239.5 239.5 0 0 1 -40.1 3.36c-.86 0-1.72 0-2.58-.02a237.235 237.235 0 0 1 -74.51-12.72 232.282 232.282 0 0 1 -30.24-12.78 229.49 229.49 0 0 1 -68.29-52.87 221.54 221.54 0 0 1 -24.111-33.09 214.364 214.364 0 0 1 -21.838-169.35 222.856 222.856 0 0 0 -23.08 27.815 214.4 214.4 0 0 0 -8.96 233.46 221.463 221.463 0 0 0 24.11 33.09 229.49 229.49 0 0 0 68.29 52.87 232.282 232.282 0 0 0 30.24 12.78 237.24 237.24 0 0 0 74.51 12.72c.86.02 1.72.02 2.58.02a239.515 239.515 0 0 0 40.1-3.36 233.31 233.31 0 0 0 96.84-40.12 228.652 228.652 0 0 0 23.82-19.53 219.681 219.681 0 0 0 60.8-98.74q-3.386 3.474-6.92 6.815z" fill="#344202"/></g><path d="m75.875 423.183a234.3 234.3 0 0 0 70.074 54.255 239.4 239.4 0 0 0 31.017 13.109 242.925 242.925 0 0 0 76.311 13.041c.908.021 1.815.022 2.723.022a246.319 246.319 0 0 0 41.1-3.444 240.749 240.749 0 0 0 99.325-41.151 235.583 235.583 0 0 0 24.447-20.045c45.867-43.151 71.128-100.914 71.128-162.65 0-56.588-21.722-110.812-61.165-152.686a237.118 237.118 0 0 0 -117.479-67.847 243.856 243.856 0 0 0 -43.184-6.356q-.947-.057-1.908-.1c2.429-6.588 7.593-11.163 15.44-13.618a13.96 13.96 0 0 0 -5.57-27.228c-24.809 2.9-36.762 30.57-40.479 41.241a244.018 244.018 0 0 0 -46.339 7.942v.009a240.191 240.191 0 0 0 -30.893 10.76l2.357 5.523-2.352-5.514a235.547 235.547 0 0 0 -72.642 48.451 229.883 229.883 0 0 0 -27.465 32.332 220.4 220.4 0 0 0 -9.208 239.971 227.945 227.945 0 0 0 24.762 33.983zm363.314-269.054q-.575-1.647-1.137-3.273a209.2 209.2 0 0 1 41.948 125.464c0 54.78-21.057 106.28-59.526 146.18.541-3.59 2.159-7.38 3.945-11.561 2.013-4.712 4.1-9.585 4.9-14.961 1.48-9.793-1.551-18.751-4.483-27.415-2.068-6.108-4.02-11.877-4.286-17.575-.466-9.9 4.108-19.5 8.952-29.671 4.933-10.359 10.034-21.071 10.224-33.091.145-9.133-2.6-17.63-5.25-25.848-2.683-8.309-5.216-16.157-4.533-23.879.633-7.165 4.022-14.043 7.61-21.324 3.461-7.025 7.04-14.288 8.429-22.437 2.418-14.21-2.262-27.63-6.793-40.609zm-38.764-34.662a40.24 40.24 0 0 1 1.675-6.339 224.005 224.005 0 0 1 18.546 17.221c.873 9.554 4.09 18.786 7.213 27.734 4.215 12.075 8.2 23.48 6.3 34.639-1.094 6.426-4.139 12.606-7.364 19.148-3.917 7.95-7.969 16.172-8.8 25.571-.9 10.147 2.134 19.539 5.066 28.622 2.461 7.625 4.785 14.825 4.672 21.972-.149 9.408-4.478 18.5-9.061 28.122-5.266 11.058-10.711 22.491-10.1 35.393.345 7.383 2.663 14.233 4.906 20.858 2.587 7.644 5.029 14.863 3.984 21.78-.58 3.862-2.276 7.833-4.072 12.037-2.956 6.919-6.307 14.762-4.67 23.385a15.744 15.744 0 0 0 .991 3.292c-4.365 3.956-8.9 7.77-13.584 11.385-.725-1.584-1.529-3.165-2.431-4.891-.577-1.107-1.189-2.2-1.8-3.3-1.707-3.048-3.319-5.927-3.853-8.715-.957-5.041 1.3-10.324 3.914-16.442 2.014-4.712 4.1-9.586 4.905-14.962 1.479-9.793-1.552-18.751-4.484-27.415-2.067-6.108-4.019-11.877-4.286-17.575-.466-9.9 4.108-19.5 8.951-29.67 4.934-10.359 10.035-21.072 10.225-33.092.144-9.136-2.6-17.636-5.249-25.856-2.681-8.307-5.212-16.154-4.533-23.871.632-7.165 4.021-14.042 7.608-21.323 3.462-7.025 7.041-14.289 8.43-22.438 2.419-14.212-2.266-27.633-6.8-40.612-4.224-12.08-8.204-23.489-6.299-34.658zm-85.225-43.94a57.163 57.163 0 0 0 1.742-6.434 224.9 224.9 0 0 1 75.255 36.3 58.6 58.6 0 0 0 -3.6 12.06c-2.426 14.217 2.26 27.644 6.793 40.628 4.215 12.075 8.2 23.481 6.3 34.643-1.1 6.426-4.14 12.606-7.364 19.149-3.918 7.95-7.968 16.171-8.8 25.573-.892 10.141 2.137 19.53 5.066 28.61 2.461 7.627 4.785 14.83 4.672 21.981-.149 9.409-4.478 18.5-9.061 28.123-5.265 11.057-10.711 22.491-10.1 35.392.344 7.383 2.663 14.233 4.905 20.858 2.586 7.644 5.029 14.863 3.984 21.78-.58 3.862-2.277 7.833-4.073 12.037-2.956 6.919-6.307 14.762-4.666 23.4.9 4.706 3.168 8.756 5.169 12.329.556.992 1.111 1.984 1.636 2.989a59.3 59.3 0 0 1 3.1 6.588 228.788 228.788 0 0 1 -83.283 35.331 68.1 68.1 0 0 0 -6.753-34.572c-.571-1.185-1.177-2.357-1.786-3.529-1.724-3.327-3.351-6.47-3.9-9.6-.99-5.692 1.435-11.775 4-18.215 2-5.032 4.08-10.235 4.886-15.921 1.477-10.345-1.5-19.893-4.384-29.127-2.068-6.624-4.02-12.879-4.28-19.128-.448-10.876 4.192-21.32 9.1-32.377 4.927-11.089 10.02-22.556 10.24-35.314.163-9.693-2.536-18.77-5.147-27.55-2.685-9.025-5.22-17.55-4.5-26.047.664-7.872 4.1-15.346 7.733-23.258 3.459-7.528 7.036-15.311 8.422-23.975 2.423-15.087-2.194-29.428-6.659-43.3-4.218-13.1-8.2-25.48-6.23-37.735 1.036-6.466 3.723-12.639 6.569-19.174 1.749-4.018 3.559-8.177 5.014-12.515zm-42.061.108a54.389 54.389 0 0 0 2.761-13.76 232.03 232.03 0 0 1 29.376 4.377 44.878 44.878 0 0 1 -1.454 5.462c-1.287 3.842-2.915 7.582-4.639 11.542-3.018 6.932-6.139 14.1-7.414 22.06-2.43 15.1 2.189 29.441 6.656 43.316 4.217 13.1 8.2 25.47 6.232 37.72-1.127 7.045-4.211 13.757-7.476 20.863-3.908 8.5-7.948 17.295-8.787 27.261-.908 10.754 2.074 20.78 4.958 30.476 2.46 8.272 4.783 16.084 4.651 23.925-.178 10.318-4.564 20.191-9.208 30.645-5.256 11.832-10.691 24.066-10.128 37.747.325 7.823 2.607 15.135 4.814 22.207 2.6 8.328 5.054 16.193 3.96 23.86-.606 4.268-2.329 8.592-4.154 13.169-3.071 7.707-6.248 15.677-4.677 24.715.863 4.955 3.1 9.263 5.066 13.065.555 1.071 1.11 2.141 1.634 3.227a56.525 56.525 0 0 1 5.316 31.533 234.763 234.763 0 0 1 -30.137 2.518 71.376 71.376 0 0 0 -6.423-39.17c-.575-1.192-1.187-2.373-1.8-3.554-1.723-3.318-3.35-6.453-3.893-9.576-.988-5.69 1.438-11.771 4.007-18.209 2.008-5.034 4.084-10.239 4.893-15.93 1.467-10.33-1.508-19.87-4.386-29.1-2.07-6.632-4.024-12.9-4.28-19.155-.448-10.876 4.192-21.32 9.1-32.378 4.927-11.089 10.02-22.556 10.24-35.314.163-9.694-2.539-18.772-5.153-27.551-2.687-9.026-5.225-17.55-4.508-26.046.664-7.876 4.1-15.353 7.74-23.269 3.459-7.523 7.035-15.3 8.426-23.964 2.423-15.091-2.2-29.434-6.663-43.305-4.219-13.1-8.2-25.476-6.237-37.721 1.04-6.455 3.721-12.618 6.56-19.143 1.758-4.031 3.574-8.202 5.025-12.543zm-17.42-36.483c6.777-11.39 14.787-17.7 23.816-18.754a1.866 1.866 0 0 1 1.771.984 1.939 1.939 0 0 1 .264.958 2.011 2.011 0 0 1 -1.442 1.914c-12.888 4.032-21.357 12.73-24.313 24.774q-2.536 0-5.06.056a79.324 79.324 0 0 1 4.964-9.932zm-62.819 24.303-1.321-4.834zm.49 38.413c1.747-3.745 3.553-7.618 5.006-11.671 2.824-7.869 3.541-15.742 2.169-22.532a232.854 232.854 0 0 1 41.927-6.255c5.9-.348 12.15-.455 18.236-.341 1.091.022 2.142.052 3.177.086a42.185 42.185 0 0 1 -2.146 10.663c-1.288 3.853-2.921 7.6-4.649 11.576-3.01 6.919-6.124 14.074-7.405 22.025-2.423 15.091 2.2 29.434 6.663 43.3 4.219 13.1 8.2 25.476 6.237 37.724-1.13 7.043-4.215 13.752-7.481 20.855-3.91 8.507-7.953 17.3-8.794 27.273-.907 10.755 2.077 20.781 4.964 30.478 2.462 8.27 4.788 16.083 4.656 23.923-.178 10.318-4.564 20.192-9.208 30.646-5.256 11.831-10.691 24.065-10.128 37.742.321 7.833 2.6 15.156 4.814 22.238 2.6 8.321 5.049 16.181 3.961 23.834-.607 4.267-2.331 8.591-4.159 13.169-3.074 7.706-6.253 15.675-4.682 24.712.86 4.95 3.094 9.252 5.064 13.049.559 1.077 1.118 2.153 1.645 3.243a60.4 60.4 0 0 1 5.15 33.87 231.043 231.043 0 0 1 -62.364-10.575 63.832 63.832 0 0 0 -5.853-41.5c-.579-1.112-1.2-2.213-1.813-3.315-1.7-3.041-3.315-5.913-3.843-8.7-.957-5.041 1.3-10.324 3.914-16.442 2.014-4.712 4.1-9.586 4.906-14.966 1.471-9.788-1.557-18.744-4.486-27.405-2.066-6.109-4.018-11.88-4.285-17.581-.466-9.9 4.108-19.5 8.951-29.67 4.934-10.359 10.035-21.072 10.225-33.092.144-9.133-2.6-17.631-5.251-25.849-2.682-8.309-5.215-16.157-4.531-23.878.631-7.165 4.021-14.042 7.608-21.323 3.462-7.025 7.041-14.289 8.43-22.438 2.419-14.212-2.266-27.633-6.8-40.612-4.216-12.08-8.2-23.489-6.294-34.655 1.011-5.907 3.662-11.59 6.47-17.606zm-32.47 0c1.747-3.745 3.554-7.618 5-11.665a48.263 48.263 0 0 0 2.708-12.192c6.65-2.708 13.454-5.1 20.319-7.168a31.634 31.634 0 0 1 -1.851 15.3c-1.267 3.534-2.879 6.99-4.586 10.649-3.019 6.471-6.141 13.163-7.42 20.657-2.426 14.217 2.26 27.644 6.793 40.628 4.215 12.075 8.2 23.481 6.3 34.643-1.095 6.426-4.14 12.606-7.364 19.149-3.918 7.95-7.968 16.171-8.8 25.57-.9 10.146 2.133 19.538 5.066 28.621 2.46 7.625 4.785 14.826 4.672 21.973-.149 9.409-4.478 18.5-9.061 28.123-5.265 11.057-10.711 22.491-10.1 35.392.344 7.384 2.662 14.236 4.9 20.863 2.585 7.643 5.026 14.861 3.986 21.775-.58 3.862-2.277 7.833-4.073 12.037-2.956 6.919-6.307 14.762-4.669 23.392.894 4.71 3.163 8.759 5.165 12.331.558 1 1.117 1.99 1.641 3a51.659 51.659 0 0 1 5.008 31.985c-6.722-2.521-13.345-5.364-19.785-8.5a62.933 62.933 0 0 0 -7.052-29.029c-.577-1.107-1.19-2.2-1.8-3.3-1.707-3.048-3.318-5.927-3.853-8.715-.957-5.041 1.3-10.325 3.915-16.443 2.013-4.712 4.095-9.585 4.9-14.961 1.479-9.793-1.552-18.751-4.484-27.415-2.067-6.108-4.019-11.877-4.286-17.575-.466-9.9 4.109-19.5 8.951-29.67 4.934-10.359 10.036-21.072 10.225-33.092.145-9.136-2.6-17.635-5.249-25.855-2.681-8.308-5.212-16.154-4.533-23.872.633-7.165 4.021-14.042 7.608-21.323 3.462-7.025 7.041-14.289 8.43-22.438 2.419-14.212-2.266-27.633-6.8-40.612-4.216-12.08-8.2-23.489-6.294-34.655 1.015-5.909 3.666-11.592 6.474-17.608zm-63.113 22.041a223.125 223.125 0 0 1 57.541-39.979c-.218.739-.451 1.478-.716 2.215-1.267 3.534-2.879 6.99-4.586 10.649-3.019 6.471-6.141 13.163-7.421 20.657-2.425 14.217 2.262 27.644 6.794 40.628 4.215 12.075 8.2 23.481 6.3 34.643-1.095 6.426-4.14 12.606-7.363 19.149-3.918 7.95-7.969 16.171-8.8 25.573-.893 10.142 2.136 19.531 5.065 28.611 2.46 7.627 4.784 14.83 4.672 21.98-.148 9.409-4.478 18.5-9.061 28.123-5.265 11.057-10.71 22.491-10.1 35.392.345 7.383 2.663 14.233 4.905 20.858 2.587 7.644 5.03 14.863 3.985 21.78-.581 3.862-2.278 7.832-4.074 12.036-2.956 6.92-6.306 14.762-4.666 23.405.9 4.706 3.168 8.756 5.169 12.329.556.992 1.112 1.984 1.635 2.987a50.361 50.361 0 0 1 5.271 16.94 221.8 221.8 0 0 1 -55.27-44.19c.745-2.179 1.7-4.428 2.7-6.767 2.013-4.71 4.094-9.579 4.9-14.951 1.479-9.8-1.552-18.76-4.484-27.427-2.065-6.105-4.015-11.871-4.286-17.563-.466-9.9 4.108-19.5 8.951-29.67 4.934-10.359 10.035-21.072 10.225-33.092.144-9.136-2.6-17.636-5.249-25.856-2.681-8.307-5.212-16.154-4.533-23.871.631-7.161 4.019-14.035 7.606-21.312 3.465-7.029 7.048-14.3 8.432-22.448 2.422-14.213-2.263-27.637-6.792-40.619-3.668-10.5-7.139-20.458-6.75-30.21zm-25.727 30.191c-.054-.155-.106-.309-.16-.463a216.672 216.672 0 0 1 14.759-18.257c1.338 7.758 3.966 15.3 6.544 22.693 4.214 12.077 8.194 23.485 6.292 34.653-1.092 6.428-4.139 12.61-7.365 19.155-3.918 7.947-7.967 16.165-8.8 25.563-.893 10.142 2.136 19.53 5.065 28.61 2.461 7.627 4.785 14.83 4.672 21.981-.149 9.409-4.478 18.5-9.061 28.123-5.265 11.057-10.711 22.491-10.1 35.4.349 7.376 2.665 14.22 4.9 20.841 2.588 7.648 5.031 14.872 3.985 21.794-.579 3.858-2.273 7.824-4.068 12.023-.162.379-.325.761-.487 1.143a215.235 215.235 0 0 1 -16.253-23.34 97.381 97.381 0 0 0 -4.28-15.462c-2.066-6.106-4.017-11.871-4.285-17.563-.461-9.895 4.114-19.5 8.956-29.666 4.937-10.361 10.04-21.076 10.23-33.1.144-9.137-2.6-17.638-5.255-25.858-2.683-8.307-5.216-16.153-4.537-23.869.632-7.164 4.022-14.04 7.613-21.321 3.464-7.025 7.046-14.29 8.435-22.443 2.42-14.219-2.268-27.647-6.8-40.637zm-40.08 122.22a207.936 207.936 0 0 1 31.507-110.16c2.958 9.132 5.014 17.922 3.548 26.562-1.1 6.426-4.142 12.606-7.368 19.148-3.92 7.951-7.974 16.172-8.8 25.574-.893 10.142 2.138 19.531 5.071 28.61 2.463 7.627 4.789 14.831 4.676 21.981-.149 9.411-4.48 18.5-9.065 28.129-3.767 7.909-7.613 16.013-9.285 24.708a208.252 208.252 0 0 1 -10.284-64.552z" fill="#151515"/></svg>